<?xml version="1.0" encoding="utf-8"?><!-- Uploaded to: SVG Repo, www.svgrepo.com, Generator: SVG Repo Mixer Tools -->
<svg fill="#000000" width="800px" height="800px" viewBox="0 0 24 24" id="linkedin" data-name="Flat Line" xmlns="http://www.w3.org/2000/svg" class="icon flat-line">
<!-- <rect id="secondary" x="3" y="3" width="18" height="18" rx="1" style="fill: rgb(44, 169, 188); stroke-width: 2;"></rect> -->
<path fill="none" d="M3 12C3 4.5885 4.5885 3 12 3C19.4115 3 21 4.5885 21 12C21 19.4115 19.4115 21 12 21C4.5885 21 3 19.4115 3 12Z" stroke="#323232" stroke-width="2"/>

<path id="primary" d="M16,17V14a2,2,0,0,0-2-2h0a2,2,0,0,0-2,2v3" style="fill: none; stroke: rgb(0, 0, 0); stroke-linecap: round; stroke-linejoin: round; stroke-width: 2;"></path>
<line id="primary-upstroke" x1="7.95" y1="7.5" x2="8.05" y2="7.5" style="fill: none; stroke: rgb(0, 0, 0); stroke-linecap: round; stroke-linejoin: round; stroke-width: 2.5;"></line>
<path id="primary-2" data-name="primary" 
d="M8,12v5m4-3V12m9" style="fill: none; stroke: rgb(0, 0, 0); stroke-linecap: round; stroke-linejoin: round; stroke-width: 2;">
</path>


</svg>