<?xml version="1.0" standalone="no"?>
<!DOCTYPE svg PUBLIC "-//W3C//DTD SVG 20010904//EN"
 "http://www.w3.org/TR/2001/REC-SVG-20010904/DTD/svg10.dtd">
<svg version="1.0" xmlns="http://www.w3.org/2000/svg"
 width="1024.000000pt" height="1024.000000pt" viewBox="0 0 1024.000000 1024.000000"
 preserveAspectRatio="xMidYMid meet">
<metadata>
Created by potrace 1.15, written by Peter Selinger 2001-2017
</metadata>
<g transform="translate(0.000000,1024.000000) scale(0.100000,-0.100000)"
fill="#000000" stroke="none">
<path d="M0 10175 l0 -65 5120 0 5120 0 0 65 0 65 -5120 0 -5120 0 0 -65z"/>
<path d="M5080 9663 c-27 -11 -49 -48 -50 -82 0 -18 12 -85 26 -148 14 -63 23
-117 20 -121 -3 -3 -25 4 -48 16 -86 43 -220 87 -378 124 -25 6 -127 13 -227
15 l-182 4 -17 -26 c-16 -24 -16 -38 2 -107 l6 -28 -93 0 c-159 0 -284 -42
-371 -124 -53 -49 -62 -63 -143 -221 -35 -68 -69 -132 -75 -142 -9 -13 -9 -26
-1 -47 11 -27 14 -28 56 -24 28 4 46 1 48 -6 5 -15 -14 -56 -26 -56 -6 0 -8
-3 -4 -6 3 -3 -11 -38 -32 -78 -21 -39 -46 -93 -56 -121 -10 -27 -21 -54 -25
-60 -11 -17 -38 -97 -54 -161 -21 -81 -21 -302 -1 -379 21 -82 59 -190 127
-360 44 -108 64 -175 75 -245 8 -52 18 -108 23 -125 5 -16 12 -47 15 -67 l7
-36 -49 -8 c-49 -7 -104 -36 -136 -71 -49 -55 -76 -212 -58 -332 24 -153 115
-351 206 -447 20 -20 76 -45 105 -46 30 -1 50 -29 50 -73 0 -13 4 -26 9 -29 5
-3 12 -22 16 -42 3 -20 10 -44 15 -53 5 -9 26 -56 46 -106 21 -49 53 -116 72
-148 19 -32 33 -59 31 -61 -2 -1 -58 -19 -124 -40 -66 -21 -139 -47 -162 -57
-24 -11 -51 -19 -61 -19 -10 0 -26 -6 -37 -14 -11 -7 -37 -19 -58 -26 -22 -7
-51 -18 -65 -26 -15 -8 -31 -14 -36 -14 -4 0 -36 -13 -70 -28 -33 -16 -79 -37
-101 -47 -89 -39 -300 -149 -325 -170 -8 -7 -37 -25 -65 -41 -44 -25 -250
-171 -281 -199 -7 -5 -36 -30 -65 -55 -29 -25 -64 -56 -79 -70 -14 -14 -39
-37 -55 -51 -50 -43 -187 -193 -245 -269 -19 -25 -37 -47 -40 -50 -3 -3 -23
-30 -45 -60 -22 -30 -42 -57 -45 -60 -13 -13 -50 -70 -50 -79 0 -5 -3 -11 -8
-13 -9 -4 -133 -199 -179 -282 -65 -117 -189 -385 -213 -459 -7 -22 -18 -51
-26 -65 -8 -15 -14 -34 -14 -42 0 -9 -4 -20 -9 -25 -10 -11 -40 -98 -66 -190
-9 -33 -21 -69 -25 -80 -5 -11 -14 -45 -20 -75 -7 -30 -18 -84 -26 -120 -35
-164 -1 -263 93 -262 34 0 36 -10 14 -70 -31 -85 -68 -207 -85 -283 -9 -38
-21 -86 -26 -105 -26 -97 -102 -542 -98 -570 1 -3 -2 -16 -5 -30 -7 -26 -10
-54 -30 -270 -14 -158 -16 -871 -3 -1063 l9 -127 -642 0 -641 0 0 -65 0 -65
5120 0 5120 0 0 65 0 65 -505 0 -505 0 0 73 c0 39 5 218 10 397 5 179 14 568
20 865 10 514 10 551 -10 760 -21 228 -29 287 -61 420 -24 102 -24 105 5 105
13 0 29 7 36 15 16 20 7 91 -20 150 -11 24 -20 48 -20 54 0 5 -3 11 -7 13 -5
2 -24 37 -43 78 -19 41 -39 80 -43 85 -12 15 -52 92 -194 375 -70 140 -132
258 -136 261 -5 3 -8 8 -6 10 2 5 -112 241 -121 249 -3 3 -13 21 -24 40 -86
163 -145 264 -157 268 -5 2 -9 8 -9 13 0 10 -64 112 -86 137 -8 10 -36 46 -62
82 -26 36 -51 70 -57 76 -5 6 -23 29 -40 50 -45 60 -232 243 -310 305 -230
182 -496 339 -760 450 -55 23 -119 50 -142 60 -23 11 -47 19 -53 19 -7 0 -26
6 -43 14 -18 8 -77 29 -132 46 -55 18 -109 36 -120 41 -11 4 -45 13 -75 19
-86 18 -83 16 -66 47 35 62 94 269 115 398 5 36 9 40 38 43 39 4 103 71 122
129 12 39 63 211 81 273 30 108 38 241 19 330 -8 38 -21 60 -52 90 -22 22 -52
43 -65 47 -22 5 -23 9 -18 62 8 78 8 84 0 194 -4 59 -2 120 4 155 6 31 14 96
18 144 5 72 9 88 24 93 21 7 40 53 40 96 0 26 3 29 33 29 22 0 41 8 53 21 17
19 19 41 22 210 4 188 4 189 26 189 25 0 56 28 56 51 -1 21 -19 40 -77 81 -71
50 -81 60 -197 171 -55 53 -111 100 -123 103 -25 7 -28 20 -38 141 -5 68 -23
142 -46 189 -14 28 -59 52 -87 48 -24 -4 -67 -47 -78 -77 -10 -31 -26 -14 -49
53 -13 36 -41 119 -64 185 -23 66 -46 129 -51 140 -5 11 -10 31 -12 45 -2 17
-12 28 -31 34 -45 16 -60 -1 -77 -89 -8 -43 -21 -80 -27 -82 -7 -3 -28 7 -46
21 -19 14 -37 23 -40 19 -4 -3 -7 -2 -7 4 0 15 -93 41 -170 48 -143 13 -334
46 -375 65 -11 5 -35 12 -52 15 -18 4 -33 10 -33 15 0 8 -48 80 -135 203 -49
68 -82 87 -125 70z m902 -1409 c133 -33 217 -72 264 -123 32 -34 89 -187 105
-280 17 -97 41 -133 97 -143 56 -9 57 -10 72 -65 7 -27 18 -61 25 -78 29 -73
35 -108 35 -213 0 -108 -1 -112 -22 -116 -44 -9 -238 -13 -238 -4 0 13 -62 67
-100 87 -19 10 -59 24 -88 31 -63 15 -70 23 -37 44 27 18 33 48 13 63 -39 30
-246 53 -468 53 -237 -1 -340 -28 -340 -90 0 -29 38 -53 97 -62 79 -12 83 -18
26 -40 -30 -11 -68 -36 -94 -63 l-44 -45 -140 0 -140 0 -42 43 c-24 25 -62 51
-90 62 -69 25 -70 31 -17 49 84 28 129 93 89 126 -21 18 -248 32 -385 25 -192
-10 -378 -49 -381 -79 -1 -6 -1 -18 0 -27 1 -10 -18 -23 -53 -38 -52 -21 -132
-86 -152 -122 -7 -13 -27 -18 -79 -20 l-70 -4 2 45 c3 105 56 423 78 477 19
45 45 44 45 -1 0 -62 15 -86 53 -86 30 0 36 4 50 40 15 40 48 56 45 23 -5 -59
21 -91 61 -78 18 5 22 17 37 105 10 56 47 136 92 199 86 122 99 132 317 231
36 17 129 48 163 55 39 8 42 -6 11 -50 -40 -59 -69 -137 -69 -186 0 -39 4 -51
26 -68 35 -28 61 -16 107 50 81 117 121 147 257 197 222 81 276 89 567 91 199
1 265 -2 315 -15z m-1667 -962 c91 -18 218 -27 343 -24 142 3 185 -6 236 -50
34 -30 37 -38 38 -88 1 -80 -18 -136 -63 -185 -51 -55 -86 -71 -191 -88 -95
-15 -138 -15 -283 1 -206 23 -305 75 -346 183 -29 75 -25 137 11 187 57 78
112 92 255 64z m1849 -22 c84 -38 116 -84 116 -171 0 -66 -19 -109 -72 -161
-49 -49 -100 -68 -248 -94 -121 -21 -405 -16 -460 8 -82 36 -141 136 -141 241
0 80 16 115 68 143 35 20 59 22 278 28 132 3 256 10 275 15 62 16 135 12 184
-9z m-2219 -122 c2 -7 6 -24 9 -38 23 -137 81 -212 210 -268 72 -32 258 -62
384 -62 126 0 230 19 305 56 26 13 47 21 47 18 0 -10 -35 -60 -68 -98 -69 -78
-81 -153 -32 -204 48 -51 86 -65 190 -73 52 -3 122 -14 155 -23 33 -10 70 -20
82 -23 13 -3 39 3 60 14 21 11 61 20 88 22 53 2 85 19 119 65 30 40 28 155 -3
210 -12 21 -20 41 -17 43 2 3 20 0 38 -6 18 -5 74 -13 123 -16 50 -4 107 -8
128 -10 47 -4 212 18 315 43 103 25 150 51 205 112 48 53 58 79 73 185 l9 60
45 3 c25 2 73 1 108 -3 84 -9 95 -29 93 -169 -1 -80 -25 -513 -36 -636 -13
-143 -39 -323 -52 -360 -4 -8 -7 -19 -8 -25 -13 -52 -57 -190 -74 -229 -52
-119 -193 -295 -297 -372 -139 -101 -369 -197 -577 -239 -228 -47 -318 -57
-502 -52 -154 5 -194 9 -275 32 -214 59 -405 183 -562 366 -57 66 -148 194
-148 209 0 5 -3 10 -7 10 -5 0 -13 10 -19 23 -6 12 -25 48 -42 80 -30 54 -100
223 -107 257 -2 8 -10 35 -18 60 -26 78 -46 161 -69 290 -19 109 -22 161 -23
405 0 247 2 284 17 312 10 17 23 33 30 36 27 11 99 7 103 -5z m1301 -31 c4 -4
11 -31 15 -60 7 -55 47 -157 61 -157 4 0 8 -4 8 -10 0 -5 13 -31 28 -57 155
-264 92 -333 -275 -302 -163 13 -218 33 -228 80 -6 26 -1 40 26 78 77 108 98
143 128 215 17 42 37 110 44 152 l12 76 87 -4 c48 -2 91 -7 94 -11z m-1534
-371 c4 -121 10 -231 14 -245 8 -28 9 -30 18 -111 3 -30 10 -71 16 -90 51
-178 -100 -29 -182 180 -40 100 -51 166 -46 276 4 106 18 147 66 191 20 19 35
23 66 21 l41 -3 7 -219z m3042 192 c37 -16 66 -83 66 -151 0 -65 -19 -207 -30
-222 -4 -5 -11 -28 -14 -49 -12 -64 -76 -250 -93 -268 -9 -10 -23 -18 -31 -18
-12 0 -14 12 -8 73 3 39 11 122 16 182 6 61 13 174 16 253 4 78 11 145 15 148
5 3 9 15 9 28 0 38 13 43 54 24z m-2347 -1730 c97 -65 256 -140 353 -166 134
-36 219 -45 391 -39 285 8 615 80 802 174 88 44 117 55 117 44 0 -22 -136
-161 -220 -225 -57 -44 -202 -136 -213 -136 -4 0 -26 -8 -50 -19 -117 -51
-141 -59 -307 -102 -100 -26 -286 -36 -376 -19 -68 12 -234 84 -234 101 0 5
-4 9 -10 9 -36 0 -224 211 -275 307 -11 21 -22 40 -25 43 -4 4 -16 26 -38 73
-7 15 11 6 85 -45z m3404 -2465 c81 -113 163 -271 153 -297 -8 -20 10 -67 46
-121 26 -41 41 -84 60 -188 6 -31 25 -103 41 -160 101 -346 188 -714 244
-1032 24 -141 55 -512 55 -671 l0 -144 -164 0 -165 0 -5 53 c-2 28 -9 111 -15
182 -6 72 -13 141 -16 155 -3 14 -14 88 -25 165 -11 77 -24 163 -30 190 -6 28
-21 106 -35 175 -13 69 -40 193 -60 275 -121 512 -150 763 -139 1198 4 147 10
267 14 267 4 0 22 -21 41 -47z m-4927 -257 c14 -61 32 -128 40 -150 40 -113
86 -321 97 -436 11 -127 4 -445 -11 -485 -4 -11 -11 -58 -15 -105 -4 -46 -11
-91 -15 -100 -5 -8 -14 -51 -20 -95 -7 -44 -16 -100 -21 -125 -65 -352 -89
-555 -89 -777 l0 -83 -325 0 c-303 0 -325 1 -325 18 0 9 5 46 10 82 6 36 13
83 16 105 7 52 48 235 78 350 13 50 36 135 50 190 15 55 37 136 51 180 35 114
126 427 130 447 2 9 19 69 38 135 19 65 50 178 69 251 30 122 36 135 65 155
50 34 63 86 63 246 0 200 23 419 48 465 3 5 13 -29 23 -75 10 -46 29 -133 43
-193z m6221 214 c16 -30 25 -80 50 -260 8 -58 17 -121 20 -140 13 -88 17 -667
7 -1080 -7 -250 -15 -598 -18 -772 l-7 -318 -333 0 -334 0 -2 138 c0 75 -2
148 -3 162 -2 14 -5 59 -9 100 -12 134 -17 184 -27 270 -13 99 -51 316 -79
445 -11 50 -22 101 -25 115 -2 14 -11 52 -19 85 -7 33 -19 85 -26 115 -7 30
-16 64 -20 75 -8 20 -23 71 -25 90 -1 6 -4 17 -7 25 -3 8 -13 44 -23 80 -9 36
-23 83 -30 105 -29 90 -65 232 -67 266 -2 31 4 41 36 70 141 126 537 344 741
408 55 17 111 35 125 40 44 16 59 12 75 -19z m-7368 -86 c214 -70 585 -299
784 -484 l87 -79 -14 -63 c-8 -35 -30 -121 -50 -193 -19 -71 -37 -141 -40
-155 -3 -14 -8 -32 -11 -40 -7 -17 -6 -13 -23 -70 -7 -25 -15 -51 -16 -58 -1
-7 -16 -57 -32 -110 -33 -109 -55 -185 -57 -192 0 -3 -3 -9 -6 -15 -4 -5 -9
-27 -13 -48 -4 -21 -16 -66 -27 -100 -51 -157 -125 -454 -155 -617 -8 -41 -20
-117 -26 -167 l-12 -93 -382 0 -383 0 -5 53 c-40 384 -26 1101 29 1432 7 44
13 90 25 180 5 44 17 116 26 160 8 44 19 103 24 131 8 53 39 168 97 369 60
208 50 188 94 181 22 -3 60 -13 86 -22z"/>
<path d="M4520 7230 c-11 -11 -20 -33 -20 -49 0 -34 37 -91 70 -108 32 -16
128 -16 159 0 36 18 64 74 57 115 -8 53 -28 61 -143 62 -90 0 -106 -3 -123
-20z"/>
<path d="M5559 7222 c-29 -3 -49 -36 -49 -78 0 -50 94 -114 169 -114 98 0 157
108 96 174 -24 26 -29 27 -108 24 -45 -2 -94 -4 -108 -6z"/>
<path d="M5634 6260 c-12 -4 -24 -15 -27 -23 -21 -56 -224 -82 -572 -71 -126
3 -254 9 -283 13 -47 5 -54 9 -70 41 -15 30 -22 35 -52 35 -34 0 -35 -1 -38
-42 -3 -40 -1 -44 40 -70 45 -29 92 -37 380 -64 116 -12 139 -10 410 20 162
18 270 64 276 116 3 19 -2 33 -14 42 -20 15 -21 15 -50 3z"/>
<path d="M6966 7477 c-13 -10 -16 -22 -13 -47 8 -49 41 -65 72 -34 19 20 13
62 -12 82 -21 15 -25 15 -47 -1z"/>
<path d="M7051 7341 c-30 -19 -6 -91 31 -91 13 0 48 39 48 54 0 34 -48 57 -79
37z"/>
</g>
</svg>
